<svg width="94" height="68" viewBox="0 0 94 68" fill="none" xmlns="http://www.w3.org/2000/svg">
<path d="M8.97237 53.2C8.97237 55.528 8.80437 58.144 7.74837 60.256C7.74837 60.256 7.55637 60.616 7.55637 60.832C7.55637 61.408 8.01237 61.528 8.49237 61.528C9.45237 61.528 10.7484 58.168 11.2764 57.136C12.3324 55.024 14.6364 50.536 16.2204 48.976C16.1244 49.48 16.1244 50.008 16.1244 50.536C16.1244 53.152 16.6284 61.456 20.4684 61.456C25.2204 61.456 26.9964 50.656 26.9964 47.32C26.9964 46.672 26.9004 43.84 25.9884 43.84C25.7004 43.84 25.4364 43.984 25.4364 44.296C25.4364 44.488 25.4844 44.656 25.5324 44.848C25.7004 45.688 25.7964 46.552 25.7964 47.416C25.7964 49.648 23.8764 59.536 21.1164 59.536C18.8364 59.536 18.4524 52.192 18.4524 50.704C18.4524 49.768 18.5244 48.832 18.6924 47.896C18.7644 47.464 18.8844 47.056 18.8844 46.624C18.8844 45.952 18.2124 45.688 17.6364 45.688C16.8444 45.688 15.9084 47.2 15.4284 47.872C14.7804 48.832 14.1324 49.792 13.5084 50.752C12.6204 52.096 11.6604 53.464 11.0124 54.952C11.0844 54.28 11.1324 53.608 11.1324 52.936C11.1324 50.776 10.7724 48.664 10.2204 46.576C10.1004 46.168 10.0044 45.808 9.86037 45.352C9.64437 44.704 9.23637 44.224 8.49237 44.224C8.08437 44.224 7.58037 44.32 7.58037 44.848C7.58037 45.112 7.77237 45.568 7.77237 45.568C8.56437 47.992 8.97237 50.632 8.97237 53.2ZM35.0727 52.576C35.3127 52.576 35.3127 53.008 35.3127 53.152C35.1447 55.072 34.9287 56.8 34.9287 58.528C34.9287 59.584 34.9287 61.816 36.2007 61.816C38.4567 61.816 40.8567 58.984 41.7927 57.136C41.8407 57.016 41.9367 56.896 41.9367 56.752C41.9367 56.512 41.8647 56.272 41.5767 56.272C41.3127 56.272 41.1447 56.584 41.0007 56.8C40.1607 58.048 38.6007 60.376 37.1127 60.376C36.4887 60.376 36.4647 59.752 36.4647 59.296L36.9207 53.272C36.9207 52.408 36.6327 51.112 35.5527 51.112C33.2967 51.112 30.4167 56.392 29.5287 58.288C29.6247 57.64 30.0567 54.736 30.2487 54.352C30.6327 53.608 31.0647 52.888 31.4487 52.12C33.0327 48.976 34.2567 45.544 34.2567 41.968C34.2567 41.176 34.0167 39.712 32.9607 39.712C29.4087 39.712 28.2327 55.408 27.8967 58.072C27.8007 58.888 27.6327 59.728 27.6327 60.544C27.6327 61.072 27.7527 61.984 28.4487 61.984C29.1447 61.984 29.5287 61.192 29.7927 60.64L29.8167 60.568C30.3927 59.344 34.0167 52.576 35.0727 52.576ZM33.0807 40.936C33.3687 40.936 33.3687 41.848 33.3687 42.064C33.3687 45.04 31.5447 49.648 30.1047 52.264C30.2007 50.632 31.5927 40.936 33.0807 40.936ZM42.4154 58.144C42.4154 57.424 42.4874 56.704 42.6314 56.008C42.7994 55.288 43.3514 54.112 43.3514 53.464C43.3514 53.08 43.1594 52.936 42.7994 52.936C41.7914 52.936 41.3594 53.608 41.0714 54.472C40.8074 55.312 40.5674 56.536 40.5674 57.424C40.5674 58.816 40.8554 61.528 42.7514 61.528C44.4554 61.528 46.4954 58.984 47.4074 57.688C47.5994 57.424 48.0554 56.776 48.0554 56.464C48.0554 56.224 48.0554 55.936 47.7434 55.936C47.4794 55.936 47.2874 56.224 47.1434 56.44C46.4234 57.568 44.5514 60.328 43.2554 60.328C42.4394 60.328 42.4154 58.696 42.4154 58.144ZM43.3754 49.264C42.7274 49.264 42.2474 49.936 42.2474 50.536C42.2474 51.016 42.5594 51.448 43.0634 51.448C43.7114 51.448 44.2154 50.8 44.2154 50.176C44.2154 49.696 43.8794 49.264 43.3754 49.264ZM49.8481 53.128C50.1361 52.384 50.4001 51.544 50.4001 50.752C50.4001 50.272 50.2321 49.456 49.6321 49.456C48.4801 49.456 47.8561 51.328 47.8561 52.264C47.8561 52.696 47.9281 53.128 48.0721 53.536C47.5441 55.192 46.7041 56.776 45.6241 58.12C45.4801 58.312 45.3361 58.504 45.3361 58.744C45.3361 58.936 45.4801 59.08 45.6721 59.08C45.9121 59.08 46.1521 58.84 46.2961 58.696C47.2561 57.736 48.1921 55.768 48.6481 54.472C49.4401 55.648 50.3281 57.688 50.3281 59.128C50.3281 60.352 49.6561 61.216 48.3841 61.216C47.7601 61.216 47.1841 61.144 46.6801 60.76C46.7281 60.808 46.4401 60.592 46.2481 60.592C46.0321 60.592 45.8641 60.712 45.8641 60.952C45.8641 61.168 45.9841 61.336 46.1281 61.48C46.8241 62.152 48.0481 62.272 48.9601 62.272C52.4401 62.272 54.5041 60.616 56.3041 57.784C56.3761 57.64 56.5201 57.448 56.5201 57.28C56.5201 57.04 56.4481 56.8 56.1601 56.8C55.8961 56.8 55.6801 57.112 55.5361 57.328C54.9121 58.264 52.6561 60.736 51.5521 60.736C51.9361 60.184 52.1041 59.536 52.1041 58.888C52.1041 56.824 50.6161 54.976 49.8481 53.128ZM57.5442 57.568C58.0242 57.736 58.4562 57.976 58.9122 58.216L62.1523 59.92C62.3923 60.04 62.6322 60.16 62.8963 60.16C63.1123 60.16 63.4002 60.112 63.4002 59.824C63.4002 59.368 62.9923 58.984 62.6563 58.744C61.7442 58.096 60.7362 57.568 59.7523 57.016C59.1522 56.68 58.5762 56.32 57.9282 56.08C59.4642 54.616 61.0003 53.152 62.6563 51.808C62.9203 51.592 63.3042 51.28 63.3042 50.92C63.3042 50.656 63.0642 50.368 62.8002 50.368C62.4883 50.368 62.1523 50.752 61.9363 50.944C60.4723 52.336 58.9602 53.656 57.5682 55.12C57.8802 52.336 58.3842 49.576 59.0323 46.84C59.4642 45.088 59.7042 44.104 60.0402 43.168C60.1602 42.832 60.2803 42.472 60.2803 42.112C60.2803 41.704 60.0883 41.464 59.6802 41.464C58.5762 41.464 58.0002 42.328 57.7122 43.288C57.0642 45.4 56.7042 47.608 56.3682 49.768C55.9122 52.672 55.6482 55.6 55.6482 58.528C55.6482 60.136 55.6482 61.744 55.8642 62.896C55.9362 63.256 56.0802 63.568 56.4882 63.568C57.0882 63.568 57.1122 62.872 57.1122 62.44C57.1122 60.832 57.3762 58.552 57.5442 57.568ZM66.965 61.312C69.581 61.312 71.885 59.392 73.133 57.208C73.277 56.944 73.349 56.8 73.349 56.488C73.349 56.32 73.157 56.224 73.013 56.224C72.677 56.224 72.437 56.608 72.293 56.848C71.333 58.456 69.725 60.184 67.709 60.184C66.581 60.184 66.149 59.512 66.149 58.432C66.149 58.096 66.197 57.76 66.269 57.424C67.733 56.896 69.989 54.352 69.989 52.744C69.989 51.904 69.509 51.304 68.645 51.304C66.053 51.304 64.301 55.888 64.301 58.048C64.301 59.752 65.069 61.312 66.965 61.312ZM68.525 52.432C68.837 52.432 68.933 52.72 68.933 52.984C68.933 54.256 67.373 55.888 66.341 56.512C66.485 55.672 67.565 52.432 68.525 52.432ZM75.4679 55.888C75.4679 56.776 75.3479 57.64 75.3479 58.528C75.3479 59.656 75.4439 61.888 77.0279 61.888C78.5639 61.888 80.9879 59.056 81.7559 57.808C81.8519 57.664 81.9479 57.496 81.9479 57.304C81.9479 57.064 81.8999 56.8 81.6119 56.8C81.3479 56.8 81.1319 57.112 80.9879 57.328C80.3639 58.264 78.3959 60.76 77.2919 60.76C76.8359 60.76 76.8359 60.184 76.8359 59.872C76.8359 58.72 77.0519 57.616 77.3159 56.488C77.3879 56.176 77.4359 55.864 77.4359 55.552C77.4359 53.416 75.3239 53.32 74.5799 52.192C74.6279 51.808 74.6519 51.424 74.6519 51.04C74.6519 50.56 74.5319 49.168 73.8599 49.168C72.8999 49.168 72.4439 51.112 72.4439 51.856C72.4439 52.576 72.6359 53.296 73.0679 53.872C72.8759 55.504 71.9159 56.896 71.0039 58.216C70.8839 58.384 70.7879 58.552 70.7879 58.744C70.7879 58.936 70.9079 59.056 71.0999 59.056C71.3639 59.056 71.5799 58.864 71.7479 58.696C72.8039 57.616 73.5479 55.792 74.0519 54.4C74.7479 54.616 75.4679 55.096 75.4679 55.888ZM84.2675 53.128C84.5555 52.384 84.8195 51.544 84.8195 50.752C84.8195 50.272 84.6515 49.456 84.0515 49.456C82.8995 49.456 82.2755 51.328 82.2755 52.264C82.2755 52.696 82.3475 53.128 82.4915 53.536C81.9635 55.192 81.1235 56.776 80.0435 58.12C79.8995 58.312 79.7555 58.504 79.7555 58.744C79.7555 58.936 79.8995 59.08 80.0915 59.08C80.3315 59.08 80.5715 58.84 80.7155 58.696C81.6755 57.736 82.6115 55.768 83.0675 54.472C83.8595 55.648 84.7475 57.688 84.7475 59.128C84.7475 60.352 84.0755 61.216 82.8035 61.216C82.1795 61.216 81.6035 61.144 81.0995 60.76C81.1475 60.808 80.8595 60.592 80.6675 60.592C80.4515 60.592 80.2835 60.712 80.2835 60.952C80.2835 61.168 80.4035 61.336 80.5475 61.48C81.2435 62.152 82.4675 62.272 83.3795 62.272C86.8595 62.272 88.9235 60.616 90.7235 57.784C90.7955 57.64 90.9395 57.448 90.9395 57.28C90.9395 57.04 90.8675 56.8 90.5795 56.8C90.3155 56.8 90.0995 57.112 89.9555 57.328C89.3315 58.264 87.0755 60.736 85.9715 60.736C86.3555 60.184 86.5235 59.536 86.5235 58.888C86.5235 56.824 85.0355 54.976 84.2675 53.128Z" fill="#E5EDEB"/>
<path d="M93.4303 32.6849C92.3832 30.882 90.9225 29.4251 89.8859 27.6164C88.53 25.1185 87.8494 22.2513 86.483 19.765C85.7684 18.5437 84.8181 17.3689 83.5329 16.9211C82.7476 16.6264 81.9623 16.3356 81.177 16.0487C80.6273 15.8743 80.0069 15.6387 79.465 15.9644C78.9917 16.2118 78.5801 16.5842 78.2661 17.049C77.9522 17.5138 77.7455 18.0569 77.664 18.631C77.4703 19.5877 77.5593 20.6345 77.1405 21.5214C76.3866 22.1815 75.3291 22.3095 74.4024 22.1582C73.9292 21.7866 73.557 21.2776 73.3266 20.6868C73.2127 19.7694 73.3315 18.8349 73.6695 17.9883C74.4548 17.8371 75.2401 18.7793 76.0856 18.407C76.2934 18.2572 76.46 18.0465 76.5667 17.7981C76.6734 17.5497 76.7162 17.2733 76.6903 16.9996C76.5751 16.1272 76.0777 15.3741 75.6066 14.6733C75.028 13.8707 74.3736 13.0274 73.4496 12.7366C72.8149 12.5488 72.149 12.5319 71.5073 12.6872C71.1693 12.8578 70.8414 13.052 70.5257 13.2688L70.5099 13.2484C70.2403 13.5093 69.9834 13.7859 69.7403 14.0772C69.0885 14.8652 68.7901 15.9615 67.8792 16.4878C67.4832 16.7547 67.0108 16.8451 66.5573 16.7408C65.5485 16.9291 64.5517 17.1895 63.5731 17.5201C61.9423 18.1017 60.2461 18.6542 58.8613 19.8116C57.4111 21.0125 56.3431 22.6526 55.1756 24.1734C54.4636 25.1039 53.8249 26.209 52.8197 26.7556C52.1391 26.7993 51.3905 26.3689 50.7701 26.8371C50.2227 27.2497 49.5757 27.4687 48.9142 27.4652C49.401 25.8804 50.2989 24.4468 50.4717 22.7485C50.7073 20.7097 50.7073 18.6458 50.4717 16.607C49.9141 13.1176 48.6733 9.61354 46.3305 7.12437C45.3153 5.982 44.161 5.00319 42.9014 4.21646C41.4381 3.26267 40.6266 1.48594 39.2078 0.476897C38.7759 0.130856 38.2262 0.101777 37.721 0C37.399 0.689174 37.5692 1.39579 37.8964 2.03553C36.5875 2.03553 35.229 1.81163 33.9699 2.29143C35.2787 2.51534 36.7394 2.29143 37.8964 3.18416C36.954 3.30629 35.9907 3.28593 35.0667 3.54474C34.0378 3.86798 33.0323 4.27723 32.059 4.76897C31.4517 4.04199 30.7501 3.31501 29.8182 3.26558C30.2661 3.95612 30.7486 4.61822 31.2632 5.24877C30.3256 6.10306 29.4503 7.03845 28.6455 8.04618C27.9335 8.99415 27.2817 10.0265 26.3891 10.7825C25.7451 11.3234 24.9101 11.4484 24.1274 11.4601C22.3788 11.4775 20.6302 11.4164 18.8921 11.524C16.6644 11.652 14.552 12.5941 12.6097 13.734C10.8789 14.7549 9.33077 16.1188 8.04183 17.7586C7.24082 18.7444 6.69111 19.9337 6.00266 21.0096C4.81424 20.8933 3.51064 20.7188 2.43216 21.4196C1.62853 21.9401 0.822287 22.6235 0.505549 23.6325C0.267585 24.4025 0.106932 25.1992 0.0265148 26.0083C-0.167193 27.5728 0.71758 29.2942 2.12065 29.7101C3.16772 30.0009 4.19908 29.4193 5.19118 29.1081C5.78801 30.6261 6.38484 32.1934 7.46332 33.3798C8.2905 34.4587 9.41087 35.1624 10.5286 35.8079C12.2301 36.9042 14.1934 37.3579 16.099 37.7562C20.2297 38.2273 24.3735 37.6138 28.512 37.6341C31.1087 37.6079 33.695 37.2008 36.2944 37.3288C36.3912 37.6545 36.4959 37.9802 36.6085 38.3029C37.2027 39.5272 38.4827 40.007 39.6136 40.3559C41.6868 40.9171 43.8018 39.7743 45.1421 38.047C45.4353 37.7795 45.697 37.3637 46.1159 37.3579C46.7441 37.2764 47.2598 37.7708 47.7729 38.0907L48.7885 37.9685C49.693 37.7036 50.6295 37.5995 51.5632 37.6603C53.4401 37.794 55.3196 37.858 57.1965 37.9918C60.301 38.0907 63.3689 38.7507 66.4735 38.838C68.1255 38.8586 69.771 38.6048 71.3555 38.0848C72.8711 37.2474 74.3763 36.2848 75.4521 34.796C76.2374 33.8975 76.5384 32.5336 77.5855 31.9317C77.9991 33.5485 78.3839 35.2874 79.5331 36.4797C80.1325 37.2212 81.0723 37.352 81.9125 37.3899C83.9517 37.5091 86.0249 37.4509 88.0065 38.079C89.0819 38.1634 90.1613 38.1634 91.2367 38.079C91.9827 37.7882 92.7759 37.5411 93.3936 36.974C94.2287 35.7498 94.1632 33.9469 93.4303 32.6849ZM78.109 21.4371C78.4912 20.4513 78.3708 19.3201 78.7216 18.3227C78.9572 17.6801 79.2451 16.9851 79.8262 16.6419C80.3498 16.2901 80.9283 16.5954 81.4649 16.6914C80.6534 17.5637 79.6613 18.3721 79.3708 19.64C79.0907 21.0416 79.3708 22.4752 79.2975 23.8914C79.0593 24.2345 78.6038 24.1618 78.2661 24.2636C77.2688 24.3653 76.2479 24.63 75.2532 24.4061C75.025 23.9885 74.8489 23.5386 74.7296 23.0684C75.9024 22.7282 77.3813 22.6933 78.109 21.4371ZM69.6304 14.7722C69.6956 14.7911 69.7622 14.8038 69.8294 14.81H69.8555C69.8878 14.813 69.9202 14.813 69.9524 14.81H69.9864C69.9864 14.81 70.0021 14.81 70.0021 14.7925C70.0021 14.7751 70.0021 14.778 69.9864 14.7751H69.9655H69.921H69.8922H69.8791C69.8783 14.7693 69.8766 14.7638 69.8739 14.7588C69.8712 14.7538 69.8676 14.7494 69.8634 14.746L69.811 14.6558L70.1854 14.3389L70.2325 14.3883C70.2773 14.4307 70.3301 14.4615 70.3869 14.4785H70.4052C70.4077 14.4798 70.4104 14.4804 70.4131 14.4804C70.4158 14.4804 70.4185 14.4798 70.4209 14.4785C70.4209 14.4785 70.4209 14.4552 70.4209 14.4494C70.3894 14.4134 70.3553 14.3803 70.3189 14.3505C70.3249 14.3473 70.3303 14.3426 70.3345 14.3368C70.3387 14.331 70.3417 14.3242 70.3432 14.3169C70.3447 14.3097 70.3447 14.3021 70.3432 14.2948C70.3417 14.2875 70.3388 14.2807 70.3346 14.2749V14.2546C70.7717 13.8478 71.2626 13.5182 71.79 13.2775C73.2716 12.9256 74.5071 14.208 75.35 15.3974C75.8578 16.0458 75.973 16.9153 76.0359 17.7411C74.837 17.8429 73.7663 16.7815 72.5596 17.2846C72.5596 18.0523 72.5386 18.8171 72.4732 19.5818C71.9078 18.9101 71.8659 17.9098 71.3188 17.2264C71.1563 17.0251 70.9814 16.8366 70.7953 16.6623V16.6478C70.8084 16.6216 70.8214 16.5954 70.8319 16.5692C70.8519 16.5257 70.8643 16.4783 70.8686 16.4297C70.8723 16.3886 70.8638 16.3474 70.8444 16.3122C70.825 16.277 70.7958 16.2499 70.7612 16.2348C70.7058 16.2075 70.6464 16.1918 70.5859 16.1883H70.4759C70.3948 16.1883 70.3162 16.1883 70.2508 16.1883H70.1487C69.9042 16.0523 69.6366 15.975 69.3634 15.9615C69.3273 15.7536 69.3325 15.5395 69.3786 15.334C69.4247 15.1286 69.5106 14.9369 69.6304 14.7722ZM45.574 13.7428C45.3613 13.1777 45.0407 12.6707 44.6343 12.2568C44.2648 13.3194 43.8156 14.3457 43.2914 15.3247C42.315 17.0694 41.5218 18.9363 40.4826 20.6432C39.5141 22.2455 38.577 23.8972 38.0194 25.7379C37.4226 27.7385 36.7106 29.7188 36.4488 31.8154C36.2682 33.3101 36.3101 34.8193 36.2839 36.3227C34.7499 36.5058 33.2055 36.5117 31.6663 36.6396C29.5722 36.8315 27.478 36.7065 25.3996 36.8606C22.6877 36.9653 19.9706 37.0816 17.256 36.9566C14.4662 36.8114 11.7639 35.8286 9.43704 34.1126C8.15479 33.1865 7.16395 31.8399 6.60211 30.2597C5.52624 27.5931 5.96078 24.5398 6.73299 21.8529C7.0314 20.6694 7.81671 19.7708 8.46589 18.8258C10.118 16.4033 12.3452 14.5404 14.8975 13.4462C16.2299 12.818 17.6304 12.3004 19.0858 12.283C20.7532 12.1434 22.4181 12.3208 24.0855 12.3092C24.925 12.2945 25.7497 12.0614 26.4934 11.6286C27.2372 11.1958 27.8792 10.5754 28.368 9.81709C29.279 8.55797 30.1062 7.12437 31.3941 6.30434L31.7475 6.56024C31.9124 7.37445 31.9647 8.241 32.394 8.95635C32.5668 7.77574 32.1611 6.61258 32.2527 5.4436C32.5956 5.0743 33.0694 4.92308 33.5039 4.73116C34.5143 4.34732 35.5379 3.90823 36.6189 3.85879C38.1608 3.77737 39.645 4.34732 41.1763 4.44037C40.802 3.39062 39.768 3.03876 39.0665 2.33214C38.6686 1.96574 38.5586 1.37253 38.3754 0.878187C39.4382 1.00323 40.0429 2.04135 40.6711 2.8672C42.014 4.81549 44.1003 5.83326 45.6735 7.51984C46.9882 8.99449 48.0262 10.7445 48.7272 12.6684C49.4282 14.5922 49.7782 16.6516 49.757 18.7269C49.7309 20.8177 49.9979 23.1266 48.8147 24.9237C48.6026 22.7195 47.909 20.6316 47.2441 18.5612C46.6813 16.9473 46.1839 15.3218 45.574 13.7428ZM47.6394 36.186C47.2258 36.5175 46.6342 36.3488 46.1473 36.4506C47.3192 33.8784 48.207 31.1581 48.7911 28.3492L50.0214 28.3753C49.909 29.0613 49.7336 29.7327 49.4979 30.3789C48.8042 32.2836 48.4927 34.354 47.6394 36.186ZM84.0747 36.5611C83.1029 36.7165 82.1138 36.6731 81.156 36.4331C80.1823 36.2267 79.5854 35.2235 79.232 34.2668C78.9703 33.5078 78.6823 32.6093 79.075 31.8387C79.2425 31.4461 79.6587 31.3327 79.9781 31.1466C80.5626 32.1923 81.2171 33.1877 81.9361 34.1243C82.6036 34.9385 83.4727 35.4997 84.1951 36.25C84.1637 36.3285 84.1035 36.4826 84.0747 36.5611ZM93.0664 35.7411C92.8691 36.1067 92.6071 36.4241 92.2962 36.674C91.9853 36.9239 91.632 37.1011 91.2576 37.195C90.2624 37.4539 89.2308 37.491 88.2226 37.3044C87.2144 37.1177 86.2494 36.7109 85.3836 36.1075C84.1768 35.2671 82.9858 34.3365 82.101 33.0774C81.4991 32.205 80.9773 31.2679 80.5435 30.28C79.0383 30.5475 77.5017 30.9837 76.1772 31.827C75.5987 32.8535 75.2767 34.0894 74.371 34.8512C74.337 33.3973 74.5778 31.8648 73.9653 30.5185C73.5229 29.2157 72.3659 28.4829 71.2717 27.9508C69.476 27.0784 67.264 27.9682 66.1698 29.6955C65.6699 30.376 65.272 31.3792 64.382 31.4694C62.9082 31.6787 61.4162 31.5333 59.9319 31.5828C58.3927 31.6264 56.8536 31.3676 55.3144 31.5072C55.635 31.7406 55.9891 31.9117 56.3614 32.0131C58.6624 32.4988 61.0157 32.3824 63.3454 32.4057C64.2354 32.3592 65.2144 32.3853 66.0023 31.8677C66.4028 30.9779 66.7588 30.0532 67.3714 29.3117C67.9185 30.3702 67.5965 31.638 67.7928 32.8012C68.8713 31.7601 68.3818 30.0503 68.1828 28.7098C69.133 28.5353 70.1932 28.1282 71.0937 28.7098C71.5099 28.8697 71.5963 29.3873 71.5989 29.8177C71.5849 30.7337 71.626 31.6498 71.7219 32.5598C72.3345 31.7194 72.2455 30.6115 72.3292 29.6025C73.3004 30.2044 73.5674 31.5159 73.6381 32.6529C73.8396 34.732 72.4732 36.7501 70.7063 37.3433C69.0283 38.1023 67.1934 37.8638 65.4264 37.8958C64.2018 37.9291 62.9766 37.8582 61.7617 37.6835C59.5864 37.4393 57.4033 37.3259 55.2175 37.0758C53.2988 36.9537 51.3695 36.91 49.4586 36.6076C50.0476 34.037 51.0292 31.6089 51.7648 29.0936C51.9088 28.7127 51.9794 28.2387 52.325 28.006C52.9925 27.5495 53.6836 27.0668 54.4584 26.8865C55.5055 27.0348 56.4688 27.8054 57.5656 27.6891C58.6849 27.5127 59.7771 27.1664 60.8115 26.6597C61.7093 26.2787 62.3559 25.4587 62.9841 24.691C63.6124 23.9233 64.2275 22.9463 64.3663 21.85C64.4448 20.6519 63.8689 19.5702 63.2747 18.6222C64.9605 17.5725 66.9656 17.8574 68.7901 18.1773C70.0231 18.378 71.0858 19.2271 71.8711 20.2681C72.7878 21.4355 73.5534 22.7391 74.1459 24.1414C74.3841 24.6009 74.5569 25.3366 75.1301 25.3569C76.2559 25.3663 77.3803 25.269 78.4912 25.0661C79.0409 24.9178 79.8001 24.8597 80.0069 24.1531C80.2189 22.6729 79.91 21.1521 80.1744 19.6749C80.5461 18.4274 81.7057 17.302 82.9465 17.5347C84.0485 17.7324 84.9333 18.6193 85.5328 19.6196C86.5798 21.2132 87.229 23.0713 87.8677 24.9004C88.4462 26.5812 89.4226 28.038 90.0849 29.6723C88.8179 30.0939 87.5222 29.8293 86.2552 29.5647C87.2683 31.0593 89.1766 30.7278 90.5587 30.1724C91.4492 31.1477 92.2636 32.2051 92.9931 33.3333C91.4723 34.6913 89.4279 34.5983 87.5955 34.4209C88.4507 35.098 89.4979 35.4079 90.543 35.2933C91.4854 35.1188 92.3361 34.6012 93.2025 34.1766C93.1877 34.7008 93.1423 35.2234 93.0664 35.7411Z" fill="#E5EDEB"/>
<path d="M26.8781 17.8752C28.1281 18.6826 29.5438 19.2609 31 19.0972C29.5469 17.8788 27.7594 17.246 26 16.875C26.2273 17.2782 26.5268 17.6194 26.8781 17.8752Z" fill="#E5EDEB"/>
<path d="M20 28.125C20 28.125 24 35.4375 23.5 37.6875" stroke="#E5EDEB" stroke-width="0.5" stroke-linecap="round" stroke-linejoin="round"/>
<path d="M17 28.125C17.8517 29.0756 19.7765 37.4243 18 38.25" stroke="#E5EDEB" stroke-width="0.5" stroke-linecap="round" stroke-linejoin="round"/>
<path d="M23 28.125C23 28.125 27 33.75 26.5 36" stroke="#E5EDEB" stroke-width="0.5" stroke-linecap="round" stroke-linejoin="round"/>
</svg>
